<svg xmlns="http://www.w3.org/2000/svg" viewBox="0 0 60 60">
  <path d="M30 0C13.458 0 0 13.458 0 30s13.458 30 30 30 30-13.458 30-30S46.542 0 30 0zm0 58C14.561 58 2 45.439 2 30S14.561 2 30 2s28 12.561 28 28-12.561 28-28 28z"/>
  <path d="M31 26.021V15.879c0-.553-.448-1-1-1s-1 .447-1 1v10.142a3.9947 3.9947 0 0 0-2.858 2.858H19c-.552 0-1 .447-1 1s.448 1 1 1h7.142c.447 1.72 2 3 3.858 3 2.206 0 4-1.794 4-4 0-1.859-1.28-3.411-3-3.858zm-1 5.858c-1.103 0-2-.897-2-2s.897-2 2-2 2 .897 2 2-.897 2-2 2zM30 9.879c.552 0 1-.447 1-1v-1c0-.553-.448-1-1-1s-1 .447-1 1v1c0 .553.448 1 1 1zM30 49.879c-.552 0-1 .447-1 1v1c0 .553.448 1 1 1s1-.447 1-1v-1c0-.553-.448-1-1-1zM52 28.879h-1c-.552 0-1 .447-1 1s.448 1 1 1h1c.552 0 1-.447 1-1s-.448-1-1-1zM9 28.879H8c-.552 0-1 .447-1 1s.448 1 1 1h1c.552 0 1-.447 1-1s-.448-1-1-1zM44.849 13.615l-.707.707a.9989.9989 0 0 0 0 1.414c.195.195.451.293.707.293s.512-.098.707-.293l.707-.707c.391-.391.391-1.023 0-1.414s-1.023-.39-1.414 0zM14.444 44.021l-.707.707a.9989.9989 0 0 0 0 1.414c.195.195.451.293.707.293s.512-.098.707-.293l.707-.707c.391-.391.391-1.023 0-1.414s-1.024-.39-1.414 0zM45.556 44.021c-.391-.391-1.023-.391-1.414 0s-.391 1.023 0 1.414l.707.707c.195.195.451.293.707.293s.512-.098.707-.293a.9989.9989 0 0 0 0-1.414l-.707-.707zM15.151 13.615c-.391-.391-1.023-.391-1.414 0s-.391 1.023 0 1.414l.707.707c.195.195.451.293.707.293s.512-.098.707-.293a.9989.9989 0 0 0 0-1.414l-.707-.707z"/>
</svg>
