<?xml version="1.0" encoding="utf-8"?>
<svg width="569px" height="517.4px" viewBox="0 0 569 517.4" xmlns="http://www.w3.org/2000/svg" xmlns:bx="https://boxy-svg.com">
  <rect width="650" height="520" x="-325" y="-260" fill="none" paint-order="stroke" rx="0" ry="0" transform="matrix(1.96928 0 0 1.96928 172.71 135.496)"/>
  <g paint-order="stroke" transform="matrix(1.002135, 0, 0, 1.002135, -0.000259, -0.025857)" bx:origin="-0.625846 -0.490579">
    <path fill="#254483" d="M556.633 372.058l-2.412-5.042c6.092-3.185 10.26-9.524 10.26-16.876a18.938 18.938 0 00-10.15-16.795V182.14l8.787-5.064v-22.114l-217.65 120.29 217.65-139.002v-15.097L345.468 243.46l217.65-141.012V76.663c-80.478 49.27-162.77 95.443-241.25 147.672-29.35 19.534-38.727 51.893-28.424 69.985-8.963-.933-17.29-2.871-24.614-6.2L97.427 246.39v81.17l171.054 48.87c61.496 14.026 90.008 8.415 149.486-26.916l77.803-47.15v-70.656s-53.19 29.809-111.422 48.513l152.364-87.902v141.026c-6.026 3.163-10.15 9.516-10.15 16.795 0 7.352 4.183 13.691 10.281 16.876l-2.411 5.042-11.156 23.207h44.512l-11.155-23.207M372.16 406.777c-26.034-3.687-57.336 1.698-66.867 28.737-9.56-27.04-40.854-32.424-66.78-28.737-47.688 6.973-106.707 43.886-161.479 13.254 34.698 107.947 178.967 122.425 228.259 57.001 49.248 65.424 193.561 50.946 228.339-57.001-54.873 30.632-113.893-6.28-161.472-13.254"/>
    <path fill="#4ebde7" d="M322.35 225.09c80.448-49.14 160.773-98.403 241.25-147.673L282.18 0 39.895 148.342c-56.65 32.65-53.059 96.172 11.353 113.448l219.027 49.912c34.107 9.217 52.84 4.284 87.29-15.025l.116-.116c1.246-.663 2.47-1.341 3.811-2.237-72.564 43.404-78.547-45.11-39.142-69.235"/>
  </g>
</svg>