<?xml version="1.0"?>
<svg xmlns="http://www.w3.org/2000/svg" width="512" height="512" viewBox="0 0 17.817 17.817">
  <path fill="#254483" d="M14.317 4.862v8.094c0 2.684-2.175 4.861-4.86 4.861H8.359c-2.684 0-4.86-2.176-4.86-4.861V4.862c0-2.673 2.156-4.839 4.823-4.86v2.114c-1.049.237-1.827 1.088-1.827 2.109v2.816c0 1.205 1.079 2.183 2.413 2.183s2.414-.978 2.414-2.183V4.225c0-1.073-.856-1.958-1.983-2.143V0h.119c2.685 0 4.861 2.175 4.859 4.862zm-6.883-.183v1.906c0 .815.661 1.476 1.476 1.476s1.477-.66 1.477-1.476V4.679c0-.815-.661-1.477-1.477-1.477-.815 0-1.476.662-1.476 1.477z"/>
</svg>
